PathFileType	4	(X/Y/Z)	G:\マイドライブ\biomec\experimentalData\240725\CJ3.trc
DataRate	CameraRate	NumFrames	NumMarkers	Units	OrigDataRate	OrigDataStartFrame	OrigNumFrames
200.00	200.00	      6	52	mm	200.00	1042	      1667
Frame#	Time	handR			wrRI			wrRO			elbRI			elbRO			shRF			shRU			shRB			handL			wrLI			wrLO			elbLI			elbLO			shLF			shLU			shLB			toeR			baRI			baRO			heelR			anRI			anRO			knRI			knRO			troR			toeL			baLI			baLO			heelL			anLI			anLO			knLI			knLO			troL			head			earR			earL			clav			c7			ribR			ribL			xiph			ASISR			ASISL			PSISR			PSISL			t8			t11			L1			L3			LS			COX			
		X1	Y1	Z1	X2	Y2	Z2	X3	Y3	Z3	X4	Y4	Z4	X5	Y5	Z5	X6	Y6	Z6	X7	Y7	Z7	X8	Y8	Z8	X9	Y9	Z9	X10	Y10	Z10	X11	Y11	Z11	X12	Y12	Z12	X13	Y13	Z13	X14	Y14	Z14	X15	Y15	Z15	X16	Y16	Z16	X17	Y17	Z17	X18	Y18	Z18	X19	Y19	Z19	X20	Y20	Z20	X21	Y21	Z21	X22	Y22	Z22	X23	Y23	Z23	X24	Y24	Z24	X25	Y25	Z25	X26	Y26	Z26	X27	Y27	Z27	X28	Y28	Z28	X29	Y29	Z29	X30	Y30	Z30	X31	Y31	Z31	X32	Y32	Z32	X33	Y33	Z33	X34	Y34	Z34	X35	Y35	Z35	X36	Y36	Z36	X37	Y37	Z37	X38	Y38	Z38	X39	Y39	Z39	X40	Y40	Z40	X41	Y41	Z41	X42	Y42	Z42	X43	Y43	Z43	X44	Y44	Z44	X45	Y45	Z45	X46	Y46	Z46	X47	Y47	Z47	X48	Y48	Z48	X49	Y49	Z49	X50	Y50	Z50	X51	Y51	Z51	X52	Y52	Z52	

1042	5.205	486.61642	763.96954	801.06989	457.69650	692.09851	787.47559	427.95691	724.73370	846.67535	429.77972	567.98541	1002.80066	490.01007	525.43250	968.69196	705.76709	731.61475	1068.88794	685.69550	691.80060	1121.58081	620.67847	686.12897	1128.04565	477.35983	1030.62329	806.06348	435.22757	1112.48743	838.32233	444.28848	1053.44287	888.39197	378.35345	1161.01746	1069.28723	421.50674	1230.83252	1048.53748	678.92816	1044.36047	1092.39624	650.65979	1069.67212	1151.90527	572.45020	1049.99402	1153.27649	660.14777	739.87225	45.93624	583.04626	797.27930	32.70310	546.40863	675.16553	42.95939	375.29849	784.49524	41.26312	480.54694	818.40240	108.00316	450.09656	724.67401	104.64938	667.48828	806.00684	405.84439	672.81085	691.31061	403.38138	396.37289	713.74829	685.69958	694.54865	1076.12476	49.06827	628.61670	1018.63892	50.28116	589.35669	1127.87781	46.96742	410.38959	1040.88086	38.01166	517.22253	999.06342	119.71184	486.50577	1089.99341	105.87122	674.32605	982.42657	425.63385	674.25061	1102.65588	432.89328	391.52710	1070.24072	686.80890	634.39954	864.76263	1372.05115	742.91174	803.25885	1233.36743	729.92493	961.29346	1242.21692	707.22961	894.69708	1054.82031	622.83734	879.91400	1183.04163	516.62512	795.68274	814.03760	495.20425	1002.93628	833.18695	646.34521	900.72327	900.60083	454.00122	789.66296	725.16064	445.93127	1008.97382	739.05396	295.01218	829.85394	804.72485	293.99286	952.66327	809.75714	459.09259	881.23352	1053.55859	386.55954	887.30737	947.65417	355.71835	892.37878	893.89764	322.47888	890.95752	848.66528	283.38943	891.83783	804.30280	238.18295	894.03766	686.58551	
1043	5.210	484.43689	763.65448	795.04626	455.47940	691.40424	782.29510	426.71133	724.29639	841.55505	429.07779	568.30975	998.30951	489.00839	525.23761	964.14221	705.82117	731.32892	1062.37292	685.01190	692.51337	1115.33508	619.87451	687.28198	1121.60754	476.78207	1030.46313	799.46631	435.48529	1112.93896	831.65033	444.27829	1053.96594	881.74780	380.53473	1162.96423	1062.34790	423.42883	1232.55566	1041.40820	680.64233	1044.93372	1083.95239	652.07428	1069.98328	1143.61731	573.65442	1050.85461	1145.58472	660.09418	739.80811	46.05992	583.03522	797.27728	32.72965	546.34692	675.14893	42.94018	375.28650	784.60449	41.19826	480.72403	818.39636	107.67410	449.94772	724.89294	104.55743	669.26917	804.59143	406.17633	673.06244	689.96710	402.46222	392.96054	713.17126	680.99994	694.60187	1076.15808	48.99990	628.69775	1018.68146	50.28914	589.35449	1127.89575	46.98853	410.40750	1040.84668	38.07842	517.24030	998.95923	119.73120	486.63052	1089.96912	105.85559	676.06390	981.99249	425.39941	675.51227	1102.98254	433.04611	390.71271	1070.57886	683.46777	636.78986	866.01917	1366.01257	743.78320	803.87982	1224.85291	731.16327	961.79510	1233.37036	707.23645	894.63342	1047.00574	623.41632	880.62280	1175.48401	514.62616	796.16217	807.70056	494.62277	1002.74561	826.35205	645.82416	900.43005	893.02130	451.48077	789.20148	719.21973	444.10886	1008.95227	732.59515	292.13602	830.40796	798.42450	292.09637	953.05005	803.64484	458.67636	882.26318	1046.75171	385.78729	888.08173	941.56531	354.51212	892.98950	888.10126	321.03351	891.58899	842.91266	281.13666	892.33521	798.06287	235.31670	894.97614	678.68134	
1044	5.215	482.33978	763.53247	789.72699	453.60800	690.83466	777.79712	425.07001	723.84131	836.79950	428.22726	568.50140	994.23291	487.86295	525.21039	959.75482	705.70471	730.98376	1056.07178	684.52368	693.01794	1109.29175	619.16510	688.34735	1115.29333	476.27310	1030.30920	793.22095	435.42270	1113.27344	825.08276	444.04227	1054.14160	875.17047	381.72928	1164.36060	1055.83435	426.02554	1232.58826	1033.81006	680.97540	1044.23071	1075.86011	653.30872	1070.43311	1135.78369	575.16876	1051.48840	1138.17834	659.98792	739.77942	46.17030	583.00226	797.26428	32.74515	546.24274	675.07837	42.86389	375.25897	784.67474	41.09798	480.87366	818.33093	107.48235	449.82190	724.95148	104.47003	670.51599	803.86078	406.41452	673.66394	688.60797	401.65503	390.24600	712.94519	676.98053	694.57330	1076.16833	49.06155	628.68237	1018.71442	50.32028	589.35205	1127.93359	46.96421	410.40796	1040.83350	38.04213	517.31744	998.93658	119.66351	486.75366	1089.69287	105.07908	677.10553	981.76440	425.01978	676.55066	1103.15259	432.66333	390.35892	1070.52087	680.75482	638.90564	867.27423	1360.00781	744.53497	804.77661	1216.64563	732.26740	962.23529	1225.11938	707.11737	894.54584	1039.38525	624.29114	881.41400	1167.92529	512.28619	796.04028	801.55701	493.71164	1002.44238	819.59644	645.10278	899.90942	885.45728	448.86868	788.55353	713.27441	442.91794	1008.85278	726.77911	289.98853	831.11334	792.51892	290.59625	953.58417	798.03479	458.35571	883.06458	1040.52527	384.94977	888.74921	936.09070	353.34976	893.73853	882.83197	319.50269	892.15997	837.53455	278.76797	893.00592	792.12048	233.65390	895.78461	670.77625	
1045	5.220	479.83105	763.00018	784.19989	450.95944	690.31909	773.02820	423.20764	723.94690	832.42487	427.29242	568.90308	990.33417	486.58664	525.15009	955.70270	705.56653	730.43182	1049.78918	684.01245	693.62732	1103.37610	618.48578	689.28778	1109.43506	475.83157	1030.15649	787.31232	435.21524	1113.36792	818.50751	445.93066	1055.58154	869.21838	382.52170	1165.51282	1049.26721	427.51056	1233.42358	1026.91528	681.98938	1044.85693	1068.22925	654.41254	1070.66724	1128.14539	575.93420	1052.08008	1131.01135	659.89282	739.68964	46.30483	582.96912	797.23120	32.78785	546.18323	675.01465	42.78807	375.23352	784.67676	41.08146	480.91870	818.23602	107.45852	449.67148	724.93219	104.37791	671.59039	802.97046	406.29883	674.05560	687.53833	400.76202	387.73383	712.95599	673.62634	694.50623	1076.18750	49.13923	628.69427	1018.67249	50.45695	589.34259	1127.96008	46.92978	410.39941	1040.86304	38.04260	517.35834	998.95929	119.63802	486.78375	1089.70398	105.07162	678.28192	981.79126	424.14517	677.99847	1103.42847	431.85007	389.95096	1070.57935	678.08203	641.08948	868.51917	1353.62366	745.09650	805.22571	1209.06494	733.54822	962.66522	1217.23987	706.95490	894.32037	1032.14319	624.87653	882.00122	1161.43750	509.72849	795.58154	795.56073	492.93079	1002.15961	813.03406	644.03491	899.24207	878.26660	447.24094	788.28809	707.99658	442.35788	1008.44305	721.24561	287.65970	832.18286	787.30975	289.56567	954.28845	793.09094	457.99072	883.65356	1034.59692	384.25177	889.50879	930.62158	352.39859	894.44659	877.50995	318.19803	892.84442	832.40082	276.95908	893.83594	786.62756	232.84241	896.50226	664.12946	
1046	5.225	477.71201	762.27832	779.43341	448.15121	689.68030	768.70520	421.26752	723.92365	828.25476	426.24365	569.30682	986.71381	484.94138	525.09973	951.85028	705.24530	730.14154	1043.59790	681.87610	694.63550	1098.56042	618.07880	690.19116	1103.87415	475.45609	1030.00024	781.72552	435.04126	1113.30591	812.15637	445.63416	1055.71155	862.87823	383.54620	1166.71082	1042.57288	428.32263	1234.19861	1020.01276	682.47986	1044.92468	1060.79126	655.15363	1071.09570	1120.83618	576.70441	1052.78015	1124.16602	659.88477	739.62268	46.36130	582.92804	797.17444	32.80561	546.14691	674.92590	42.73984	375.24622	784.68475	41.09346	481.10379	818.00500	107.48340	449.62430	724.82837	104.34248	672.15198	801.68365	405.26773	674.45465	686.34406	399.66733	385.86105	713.15240	670.23157	694.51758	1076.19678	49.11777	628.74396	1018.59235	50.53484	589.32898	1127.99426	46.89666	410.38632	1040.84863	38.03991	517.43884	998.96417	119.57890	486.80313	1089.68103	105.08975	679.48700	981.74603	423.29980	679.41779	1103.82874	430.66910	389.78775	1070.79993	675.13727	642.62543	869.98877	1346.83472	745.63519	805.90619	1202.04602	734.64685	963.17786	1210.11975	706.80939	894.08557	1025.05444	625.43616	882.61731	1155.12561	507.94412	795.61420	790.31329	492.03857	1001.87799	806.77917	643.27625	898.76788	871.65497	444.59875	787.68347	703.68225	441.74506	1008.20905	716.32452	286.06540	833.09589	782.85364	289.12933	955.14008	788.58948	457.77744	884.26495	1029.25061	383.58270	890.17944	925.73273	351.45605	895.06726	872.73627	317.02133	893.36481	827.52399	275.36612	895.07294	781.97638	232.32545	897.40405	658.68158	
1047	5.230	475.46118	761.79919	774.92755	445.47455	689.16412	764.85638	419.41592	723.82794	824.41821	424.90927	569.81036	983.19592	483.23047	525.15833	948.03522	704.74103	729.97479	1037.77075	681.67102	695.02606	1092.97290	617.76978	690.99817	1098.82727	475.14529	1029.83606	776.44550	434.65845	1113.03455	805.83722	445.14355	1055.46875	856.77045	384.00171	1167.40625	1036.24280	429.13965	1234.83130	1013.31506	682.92126	1045.01514	1053.82617	655.92139	1071.61963	1114.08508	577.29205	1053.26001	1117.57129	659.87531	739.51434	46.37767	582.91290	797.14398	32.84220	546.13000	674.81799	42.62774	375.28790	784.68054	41.10246	481.34698	817.85419	107.37074	449.70331	724.64233	104.28310	672.09698	800.84912	404.11911	675.00940	685.43225	398.71600	383.89102	713.37390	667.11139	694.52264	1076.21985	49.08883	628.75500	1018.53381	50.52581	589.32288	1128.03857	46.87273	410.36963	1040.84302	37.98438	517.52240	998.91711	119.44613	486.92627	1089.70667	104.91536	680.31476	982.16064	421.60248	680.64227	1103.92639	429.41644	389.48663	1071.42310	671.79602	643.87927	871.21259	1339.99658	746.13525	806.30994	1195.76489	735.79541	963.94690	1203.45935	706.46222	893.83478	1018.53308	625.82941	883.19891	1149.43286	505.83383	794.74036	785.48627	491.49689	1001.76947	800.75354	642.48450	898.01813	865.48352	443.04092	787.37671	699.02350	441.37775	1007.73041	711.24548	284.83527	834.20306	778.67883	288.89462	956.05359	784.43872	457.85172	884.72211	1024.19141	383.00555	890.85712	920.97919	350.66306	895.66565	868.08636	316.08331	894.26550	822.95380	274.53824	896.05756	777.51691	231.26254	898.59479	655.17896	
